<svg width="711" height="465" viewBox="0 0 711 465" fill="none" xmlns="http://www.w3.org/2000/svg">
<path fill-rule="evenodd" clip-rule="evenodd" d="M0 30C0 13.4315 13.4315 0 30 0H681C697.569 0 711 13.4315 711 30V435C711 451.569 697.569 465 681 465H30C13.4314 465 0 451.569 0 435V30Z" fill="#080D3D"/>
<path d="M77.961 326.402H64.0982V324.037L70.9659 316.547C71.9571 315.442 72.6604 314.522 73.0758 313.786C73.5006 313.04 73.713 312.294 73.713 311.548C73.713 310.566 73.4345 309.773 72.8775 309.169C72.33 308.565 71.589 308.263 70.6544 308.263C69.5405 308.263 68.6767 308.603 68.0631 309.283C67.4495 309.962 67.1427 310.892 67.1427 312.072H63.7018C63.7018 310.817 63.985 309.689 64.5514 308.688C65.1272 307.678 65.9438 306.894 67.0011 306.337C68.0678 305.78 69.295 305.502 70.6827 305.502C72.684 305.502 74.2605 306.007 75.4122 307.017C76.5733 308.018 77.1539 309.405 77.1539 311.18C77.1539 312.209 76.8613 313.29 76.276 314.423C75.7001 315.546 74.7514 316.825 73.4298 318.26L68.3888 323.655H77.961V326.402ZM93.5655 311.223C93.5655 312.233 93.3059 313.134 92.7867 313.927C92.2675 314.711 91.5595 315.329 90.6627 315.782C91.7389 316.282 92.5649 316.967 93.1407 317.835C93.726 318.704 94.0187 319.686 94.0187 320.781C94.0187 322.593 93.405 324.033 92.1778 325.099C90.9506 326.157 89.3175 326.685 87.2784 326.685C85.2299 326.685 83.5873 326.152 82.3507 325.085C81.1235 324.019 80.5099 322.584 80.5099 320.781C80.5099 319.676 80.8025 318.685 81.3878 317.807C81.9731 316.929 82.7944 316.254 83.8517 315.782C82.9643 315.329 82.261 314.711 81.7418 313.927C81.232 313.134 80.9772 312.233 80.9772 311.223C80.9772 309.467 81.5436 308.074 82.6764 307.045C83.8092 306.016 85.3385 305.502 87.2643 305.502C89.1995 305.502 90.7335 306.016 91.8663 307.045C92.9991 308.074 93.5655 309.467 93.5655 311.223ZM90.5777 320.611C90.5777 319.591 90.2709 318.77 89.6573 318.147C89.0532 317.514 88.2508 317.198 87.2501 317.198C86.2495 317.198 85.447 317.51 84.8429 318.133C84.2481 318.756 83.9508 319.582 83.9508 320.611C83.9508 321.621 84.2434 322.428 84.8287 323.032C85.4234 323.636 86.24 323.938 87.2784 323.938C88.3168 323.938 89.124 323.646 89.6998 323.06C90.2851 322.475 90.5777 321.659 90.5777 320.611ZM90.1388 311.35C90.1388 310.453 89.8792 309.717 89.36 309.141C88.8408 308.556 88.1422 308.263 87.2643 308.263C86.3863 308.263 85.6925 308.542 85.1827 309.099C84.673 309.646 84.4181 310.397 84.4181 311.35C84.4181 312.294 84.673 313.044 85.1827 313.601C85.7019 314.158 86.4005 314.437 87.2784 314.437C88.1564 314.437 88.8502 314.158 89.36 313.601C89.8792 313.044 90.1388 312.294 90.1388 311.35Z" fill="white"/>
<path d="M140.692 326.402H126.829V324.037L133.697 316.547C134.688 315.442 135.391 314.522 135.807 313.786C136.232 313.04 136.444 312.294 136.444 311.548C136.444 310.566 136.165 309.773 135.608 309.169C135.061 308.565 134.32 308.263 133.385 308.263C132.271 308.263 131.408 308.603 130.794 309.283C130.18 309.962 129.874 310.892 129.874 312.072H126.433C126.433 310.817 126.716 309.689 127.282 308.688C127.858 307.678 128.675 306.894 129.732 306.337C130.799 305.78 132.026 305.502 133.414 305.502C135.415 305.502 136.991 306.007 138.143 307.017C139.304 308.018 139.885 309.405 139.885 311.18C139.885 312.209 139.592 313.29 139.007 314.423C138.431 315.546 137.482 316.825 136.161 318.26L131.12 323.655H140.692V326.402ZM153.068 317.779C151.916 318.996 150.571 319.605 149.032 319.605C147.22 319.605 145.775 318.973 144.699 317.708C143.623 316.433 143.085 314.763 143.085 312.695C143.085 311.336 143.359 310.104 143.906 308.999C144.454 307.895 145.233 307.036 146.243 306.422C147.253 305.809 148.423 305.502 149.754 305.502C151.831 305.502 153.479 306.276 154.696 307.824C155.914 309.372 156.523 311.444 156.523 314.04V315.003C156.523 318.723 155.683 321.559 154.003 323.514C152.322 325.468 149.816 326.459 146.483 326.487H146.073V323.641H146.568C148.598 323.613 150.156 323.127 151.241 322.182C152.327 321.229 152.936 319.761 153.068 317.779ZM149.754 316.915C150.444 316.915 151.09 316.717 151.694 316.32C152.299 315.924 152.766 315.376 153.096 314.678V313.332C153.096 311.813 152.785 310.59 152.162 309.665C151.539 308.74 150.732 308.277 149.74 308.277C148.749 308.277 147.956 308.688 147.361 309.509C146.776 310.321 146.483 311.35 146.483 312.596C146.483 313.889 146.781 314.932 147.376 315.725C147.97 316.518 148.763 316.915 149.754 316.915Z" fill="white"/>
<path d="M192.809 314.522H194.905C195.962 314.512 196.798 314.239 197.411 313.701C198.034 313.162 198.346 312.384 198.346 311.364C198.346 310.382 198.086 309.622 197.567 309.084C197.057 308.537 196.274 308.263 195.216 308.263C194.291 308.263 193.531 308.532 192.937 309.07C192.342 309.599 192.045 310.293 192.045 311.152H188.604C188.604 310.094 188.882 309.132 189.439 308.263C190.005 307.395 190.789 306.72 191.79 306.238C192.8 305.747 193.928 305.502 195.174 305.502C197.232 305.502 198.846 306.021 200.017 307.059C201.197 308.088 201.787 309.523 201.787 311.364C201.787 312.289 201.489 313.162 200.895 313.984C200.309 314.796 199.549 315.409 198.615 315.825C199.748 316.212 200.607 316.821 201.192 317.651C201.787 318.482 202.084 319.473 202.084 320.625C202.084 322.475 201.447 323.948 200.172 325.043C198.907 326.138 197.241 326.685 195.174 326.685C193.192 326.685 191.568 326.157 190.303 325.099C189.038 324.042 188.405 322.636 188.405 320.88H191.846C191.846 321.786 192.148 322.522 192.753 323.089C193.366 323.655 194.187 323.938 195.216 323.938C196.283 323.938 197.123 323.655 197.737 323.089C198.351 322.522 198.657 321.701 198.657 320.625C198.657 319.539 198.336 318.704 197.694 318.119C197.053 317.533 196.099 317.241 194.834 317.241H192.809V314.522ZM218.751 317.722C218.751 320.686 218.194 322.924 217.08 324.434C215.975 325.935 214.29 326.685 212.025 326.685C209.797 326.685 208.116 325.954 206.983 324.491C205.86 323.018 205.284 320.842 205.256 317.963V314.394C205.256 311.43 205.808 309.207 206.913 307.725C208.027 306.243 209.721 305.502 211.996 305.502C214.252 305.502 215.933 306.224 217.037 307.668C218.151 309.113 218.722 311.274 218.751 314.154V317.722ZM215.31 313.87C215.31 311.935 215.045 310.519 214.517 309.622C213.988 308.716 213.148 308.263 211.996 308.263C210.873 308.263 210.047 308.693 209.518 309.552C208.99 310.401 208.711 311.732 208.683 313.545V318.218C208.683 320.143 208.952 321.578 209.49 322.522C210.028 323.466 210.873 323.938 212.025 323.938C213.129 323.938 213.946 323.504 214.474 322.636C215.003 321.758 215.281 320.389 215.31 318.529V313.87Z" fill="white"/>
<path d="M255.54 314.522H257.635C258.693 314.512 259.528 314.239 260.142 313.701C260.765 313.162 261.076 312.384 261.076 311.364C261.076 310.382 260.817 309.622 260.297 309.084C259.788 308.537 259.004 308.263 257.947 308.263C257.022 308.263 256.262 308.532 255.667 309.07C255.072 309.599 254.775 310.293 254.775 311.152H251.334C251.334 310.094 251.613 309.132 252.17 308.263C252.736 307.395 253.519 306.72 254.52 306.238C255.53 305.747 256.658 305.502 257.904 305.502C259.962 305.502 261.577 306.021 262.747 307.059C263.927 308.088 264.517 309.523 264.517 311.364C264.517 312.289 264.22 313.162 263.625 313.984C263.04 314.796 262.28 315.409 261.345 315.825C262.478 316.212 263.337 316.821 263.922 317.651C264.517 318.482 264.815 319.473 264.815 320.625C264.815 322.475 264.177 323.948 262.903 325.043C261.638 326.138 259.972 326.685 257.904 326.685C255.922 326.685 254.298 326.157 253.033 325.099C251.768 324.042 251.136 322.636 251.136 320.88H254.577C254.577 321.786 254.879 322.522 255.483 323.089C256.097 323.655 256.918 323.938 257.947 323.938C259.014 323.938 259.854 323.655 260.467 323.089C261.081 322.522 261.388 321.701 261.388 320.625C261.388 319.539 261.067 318.704 260.425 318.119C259.783 317.533 258.83 317.241 257.565 317.241H255.54V314.522ZM277.36 326.402H273.934V309.849L268.879 311.577V308.674L276.921 305.714H277.36V326.402Z" fill="white"/>
<path opacity="0.2" d="M331.121 326.402H327.694V309.849L322.639 311.577V308.674L330.682 305.714H331.121V326.402Z" fill="white"/>
<path opacity="0.2" d="M398.397 326.402H384.534V324.037L391.402 316.547C392.393 315.442 393.096 314.522 393.512 313.786C393.937 313.04 394.149 312.294 394.149 311.548C394.149 310.566 393.871 309.773 393.314 309.169C392.766 308.565 392.025 308.263 391.09 308.263C389.977 308.263 389.113 308.603 388.499 309.283C387.886 309.962 387.579 310.892 387.579 312.072H384.138C384.138 310.817 384.421 309.689 384.987 308.688C385.563 307.678 386.38 306.894 387.437 306.337C388.504 305.78 389.731 305.502 391.119 305.502C393.12 305.502 394.697 306.007 395.848 307.017C397.009 308.018 397.59 309.405 397.59 311.18C397.59 312.209 397.297 313.29 396.712 314.423C396.136 315.546 395.187 316.825 393.866 318.26L388.825 323.655H398.397V326.402Z" fill="white"/>
<path opacity="0.2" d="M450.514 314.522H452.61C453.667 314.512 454.503 314.239 455.116 313.701C455.739 313.162 456.051 312.384 456.051 311.364C456.051 310.382 455.791 309.622 455.272 309.084C454.762 308.537 453.979 308.263 452.921 308.263C451.996 308.263 451.236 308.532 450.642 309.07C450.047 309.599 449.75 310.293 449.75 311.152H446.309C446.309 310.094 446.587 309.132 447.144 308.263C447.711 307.395 448.494 306.72 449.495 306.238C450.505 305.747 451.633 305.502 452.879 305.502C454.937 305.502 456.551 306.021 457.722 307.059C458.902 308.088 459.492 309.523 459.492 311.364C459.492 312.289 459.194 313.162 458.6 313.984C458.014 314.796 457.254 315.409 456.32 315.825C457.453 316.212 458.312 316.821 458.897 317.651C459.492 318.482 459.789 319.473 459.789 320.625C459.789 322.475 459.152 323.948 457.878 325.043C456.613 326.138 454.946 326.685 452.879 326.685C450.897 326.685 449.273 326.157 448.008 325.099C446.743 324.042 446.11 322.636 446.11 320.88H449.551C449.551 321.786 449.853 322.522 450.458 323.089C451.071 323.655 451.893 323.938 452.921 323.938C453.988 323.938 454.828 323.655 455.442 323.089C456.056 322.522 456.362 321.701 456.362 320.625C456.362 319.539 456.041 318.704 455.4 318.119C454.758 317.533 453.804 317.241 452.539 317.241H450.514V314.522Z" fill="white"/>
<path d="M77.961 282.731H64.0982V280.366L70.9659 272.875C71.9571 271.771 72.6604 270.85 73.0758 270.114C73.5006 269.368 73.713 268.623 73.713 267.877C73.713 266.895 73.4345 266.102 72.8775 265.498C72.33 264.894 71.589 264.592 70.6544 264.592C69.5405 264.592 68.6767 264.931 68.0631 265.611C67.4495 266.291 67.1427 267.221 67.1427 268.401H63.7018C63.7018 267.145 63.985 266.017 64.5514 265.016C65.1272 264.006 65.9438 263.223 67.0011 262.666C68.0678 262.109 69.295 261.83 70.6827 261.83C72.684 261.83 74.2605 262.335 75.4122 263.346C76.5733 264.346 77.1539 265.734 77.1539 267.509C77.1539 268.538 76.8613 269.618 76.276 270.751C75.7001 271.875 74.7514 273.154 73.4298 274.589L68.3888 279.984H77.961V282.731ZM94.0187 274.051C94.0187 277.015 93.4617 279.252 92.3478 280.763C91.2433 282.263 89.5582 283.014 87.2926 283.014C85.0647 283.014 83.3844 282.282 82.2516 280.819C81.1282 279.346 80.5523 277.171 80.524 274.291V270.723C80.524 267.759 81.0763 265.536 82.1808 264.054C83.2947 262.571 84.9892 261.83 87.2643 261.83C89.5204 261.83 91.2008 262.553 92.3053 263.997C93.4192 265.441 93.9903 267.603 94.0187 270.482V274.051ZM90.5777 270.199C90.5777 268.264 90.3134 266.848 89.7848 265.951C89.2561 265.045 88.416 264.592 87.2643 264.592C86.1409 264.592 85.3149 265.021 84.7862 265.88C84.2576 266.73 83.9791 268.061 83.9508 269.873V274.546C83.9508 276.472 84.2198 277.907 84.7579 278.851C85.296 279.795 86.1409 280.267 87.2926 280.267C88.3971 280.267 89.2136 279.833 89.7423 278.964C90.2709 278.086 90.5494 276.717 90.5777 274.858V270.199Z" fill="white"/>
<path d="M140.692 282.731H126.829V280.366L133.697 272.875C134.688 271.771 135.391 270.85 135.807 270.114C136.232 269.368 136.444 268.623 136.444 267.877C136.444 266.895 136.165 266.102 135.608 265.498C135.061 264.894 134.32 264.592 133.385 264.592C132.271 264.592 131.408 264.931 130.794 265.611C130.18 266.291 129.874 267.221 129.874 268.401H126.433C126.433 267.145 126.716 266.017 127.282 265.016C127.858 264.006 128.675 263.223 129.732 262.666C130.799 262.109 132.026 261.83 133.414 261.83C135.415 261.83 136.991 262.335 138.143 263.346C139.304 264.346 139.885 265.734 139.885 267.509C139.885 268.538 139.592 269.618 139.007 270.751C138.431 271.875 137.482 273.154 136.161 274.589L131.12 279.984H140.692V282.731ZM152.629 282.731H149.202V266.178L144.147 267.905V265.002L152.19 262.043H152.629V282.731Z" fill="white"/>
<path d="M202.693 282.731H188.83V280.366L195.698 272.875C196.689 271.771 197.392 270.85 197.808 270.114C198.233 269.368 198.445 268.623 198.445 267.877C198.445 266.895 198.166 266.102 197.609 265.498C197.062 264.894 196.321 264.592 195.386 264.592C194.272 264.592 193.409 264.931 192.795 265.611C192.181 266.291 191.875 267.221 191.875 268.401H188.434C188.434 267.145 188.717 266.017 189.283 265.016C189.859 264.006 190.676 263.223 191.733 262.666C192.8 262.109 194.027 261.83 195.415 261.83C197.416 261.83 198.992 262.335 200.144 263.346C201.305 264.346 201.886 265.734 201.886 267.509C201.886 268.538 201.593 269.618 201.008 270.751C200.432 271.875 199.483 273.154 198.162 274.589L193.121 279.984H202.693V282.731ZM209.292 270.85H211.387C212.445 270.841 213.28 270.567 213.894 270.029C214.517 269.491 214.828 268.712 214.828 267.693C214.828 266.711 214.569 265.951 214.049 265.413C213.54 264.865 212.756 264.592 211.699 264.592C210.774 264.592 210.014 264.861 209.419 265.399C208.824 265.927 208.527 266.621 208.527 267.48H205.086C205.086 266.423 205.365 265.46 205.921 264.592C206.488 263.723 207.271 263.048 208.272 262.567C209.282 262.076 210.41 261.83 211.656 261.83C213.714 261.83 215.329 262.35 216.499 263.388C217.679 264.417 218.269 265.852 218.269 267.693C218.269 268.618 217.972 269.491 217.377 270.312C216.792 271.124 216.032 271.738 215.097 272.153C216.23 272.54 217.089 273.149 217.674 273.98C218.269 274.811 218.567 275.802 218.567 276.953C218.567 278.804 217.929 280.276 216.655 281.371C215.39 282.466 213.724 283.014 211.656 283.014C209.674 283.014 208.05 282.485 206.785 281.428C205.52 280.371 204.888 278.964 204.888 277.208H208.329C208.329 278.115 208.631 278.851 209.235 279.417C209.849 279.984 210.67 280.267 211.699 280.267C212.766 280.267 213.606 279.984 214.219 279.417C214.833 278.851 215.14 278.03 215.14 276.953C215.14 275.868 214.819 275.032 214.177 274.447C213.535 273.862 212.581 273.569 211.317 273.569H209.292V270.85Z" fill="white"/>
<path d="M265.423 282.731H251.561V280.366L258.428 272.875C259.42 271.771 260.123 270.85 260.538 270.114C260.963 269.368 261.175 268.623 261.175 267.877C261.175 266.895 260.897 266.102 260.34 265.498C259.792 264.894 259.051 264.592 258.117 264.592C257.003 264.592 256.139 264.931 255.525 265.611C254.912 266.291 254.605 267.221 254.605 268.401H251.164C251.164 267.145 251.447 266.017 252.014 265.016C252.59 264.006 253.406 263.223 254.463 262.666C255.53 262.109 256.757 261.83 258.145 261.83C260.146 261.83 261.723 262.335 262.875 263.346C264.036 264.346 264.616 265.734 264.616 267.509C264.616 268.538 264.324 269.618 263.738 270.751C263.163 271.875 262.214 273.154 260.892 274.589L255.851 279.984H265.423V282.731ZM279.683 275.382H282.246V278.143H279.683V282.731H276.242V278.143H267.335L267.236 276.047L276.129 262.114H279.683V275.382ZM270.847 275.382H276.242V266.772L275.987 267.225L270.847 275.382Z" fill="white"/>
<path d="M327.425 282.731H313.563V280.366L320.43 272.875C321.421 271.771 322.125 270.85 322.54 270.114C322.965 269.368 323.177 268.623 323.177 267.877C323.177 266.895 322.899 266.102 322.342 265.498C321.794 264.894 321.053 264.592 320.119 264.592C319.005 264.592 318.141 264.931 317.527 265.611C316.914 266.291 316.607 267.221 316.607 268.401H313.166C313.166 267.145 313.449 266.017 314.016 265.016C314.592 264.006 315.408 263.223 316.465 262.666C317.532 262.109 318.759 261.83 320.147 261.83C322.148 261.83 323.725 262.335 324.877 263.346C326.038 264.346 326.618 265.734 326.618 267.509C326.618 268.538 326.326 269.618 325.74 270.751C325.164 271.875 324.216 273.154 322.894 274.589L317.853 279.984H327.425V282.731ZM330.965 272.507L332.084 262.114H343.157V265.087H334.944L334.378 270.015C335.331 269.467 336.408 269.194 337.607 269.194C339.57 269.194 341.095 269.821 342.18 271.077C343.275 272.332 343.823 274.022 343.823 276.146C343.823 278.242 343.219 279.913 342.01 281.159C340.802 282.396 339.145 283.014 337.04 283.014C335.152 283.014 333.585 282.481 332.339 281.414C331.102 280.338 330.432 278.922 330.328 277.166H333.656C333.788 278.166 334.147 278.936 334.732 279.474C335.317 280.003 336.082 280.267 337.026 280.267C338.083 280.267 338.905 279.889 339.49 279.134C340.085 278.379 340.382 277.35 340.382 276.047C340.382 274.792 340.056 273.8 339.405 273.074C338.754 272.337 337.857 271.969 336.714 271.969C336.091 271.969 335.563 272.054 335.129 272.224C334.694 272.384 334.222 272.705 333.713 273.187L330.965 272.507Z" fill="white"/>
<path opacity="0.2" d="M390.156 282.731H376.293V280.366L383.161 272.875C384.152 271.771 384.855 270.85 385.271 270.114C385.695 269.368 385.908 268.623 385.908 267.877C385.908 266.895 385.629 266.102 385.072 265.498C384.525 264.894 383.784 264.592 382.849 264.592C381.735 264.592 380.872 264.931 380.258 265.611C379.644 266.291 379.338 267.221 379.338 268.401H375.897C375.897 267.145 376.18 266.017 376.746 265.016C377.322 264.006 378.139 263.223 379.196 262.666C380.263 262.109 381.49 261.83 382.878 261.83C384.879 261.83 386.455 262.335 387.607 263.346C388.768 264.346 389.349 265.734 389.349 267.509C389.349 268.538 389.056 269.618 388.471 270.751C387.895 271.875 386.946 273.154 385.625 274.589L380.584 279.984H390.156V282.731ZM403.481 262.014V264.861H403.056C401.13 264.889 399.591 265.418 398.44 266.447C397.288 267.476 396.603 268.934 396.386 270.822C397.491 269.661 398.902 269.08 400.62 269.08C402.442 269.08 403.877 269.722 404.925 271.006C405.982 272.29 406.511 273.947 406.511 275.976C406.511 278.072 405.893 279.771 404.656 281.074C403.429 282.367 401.814 283.014 399.813 283.014C397.755 283.014 396.084 282.254 394.8 280.734C393.526 279.214 392.889 277.222 392.889 274.759V273.583C392.889 269.968 393.767 267.136 395.523 265.087C397.288 263.039 399.823 262.014 403.127 262.014H403.481ZM399.785 271.856C399.03 271.856 398.336 272.068 397.703 272.493C397.08 272.918 396.622 273.484 396.33 274.192V275.24C396.33 276.769 396.651 277.987 397.293 278.893C397.935 279.79 398.765 280.239 399.785 280.239C400.804 280.239 401.611 279.856 402.206 279.092C402.801 278.327 403.098 277.322 403.098 276.076C403.098 274.829 402.796 273.815 402.192 273.031C401.588 272.248 400.785 271.856 399.785 271.856Z" fill="white"/>
<path opacity="0.2" d="M452.157 282.731H438.294V280.366L445.162 272.875C446.153 271.771 446.856 270.85 447.272 270.114C447.696 269.368 447.909 268.623 447.909 267.877C447.909 266.895 447.63 266.102 447.073 265.498C446.526 264.894 445.785 264.592 444.85 264.592C443.736 264.592 442.872 264.931 442.259 265.611C441.645 266.291 441.338 267.221 441.338 268.401H437.898C437.898 267.145 438.181 266.017 438.747 265.016C439.323 264.006 440.14 263.223 441.197 262.666C442.264 262.109 443.491 261.83 444.879 261.83C446.88 261.83 448.456 262.335 449.608 263.346C450.769 264.346 451.35 265.734 451.35 267.509C451.35 268.538 451.057 269.618 450.472 270.751C449.896 271.875 448.947 273.154 447.626 274.589L442.585 279.984H452.157V282.731ZM468.498 264.025L460.256 282.731H456.646L464.873 264.875H454.21V262.114H468.498V264.025Z" fill="white"/>
<path d="M73.4156 239.06H69.9889V222.506L64.9337 224.234V221.331L72.9767 218.372H73.4156V239.06ZM84.5597 227.179H86.6554C87.7127 227.17 88.5481 226.896 89.1617 226.358C89.7848 225.82 90.0963 225.041 90.0963 224.021C90.0963 223.04 89.8367 222.28 89.3175 221.742C88.8077 221.194 88.0242 220.92 86.9669 220.92C86.0418 220.92 85.2818 221.189 84.6871 221.728C84.0924 222.256 83.795 222.95 83.795 223.809H80.3541C80.3541 222.752 80.6326 221.789 81.1896 220.92C81.756 220.052 82.5395 219.377 83.5401 218.896C84.5502 218.405 85.6783 218.159 86.9244 218.159C88.9824 218.159 90.5966 218.678 91.7672 219.717C92.9472 220.746 93.5372 222.181 93.5372 224.021C93.5372 224.947 93.2398 225.82 92.6451 226.641C92.0598 227.453 91.2999 228.067 90.3653 228.482C91.4981 228.869 92.3572 229.478 92.9425 230.309C93.5372 231.139 93.8346 232.131 93.8346 233.282C93.8346 235.132 93.1974 236.605 91.923 237.7C90.658 238.795 88.9918 239.343 86.9244 239.343C84.942 239.343 83.3183 238.814 82.0533 237.757C80.7883 236.7 80.1559 235.293 80.1559 233.537H83.5968C83.5968 234.443 83.8989 235.18 84.503 235.746C85.1166 236.312 85.9379 236.596 86.9669 236.596C88.0336 236.596 88.8738 236.312 89.4874 235.746C90.101 235.18 90.4078 234.358 90.4078 233.282C90.4078 232.197 90.0869 231.361 89.4449 230.776C88.803 230.191 87.8495 229.898 86.5846 229.898H84.5597V227.179Z" fill="white"/>
<path opacity="0.2" d="M136.147 239.06H132.72V222.506L127.665 224.234V221.331L135.708 218.372H136.147V239.06ZM154.951 231.71H157.514V234.472H154.951V239.06H151.51V234.472H142.604L142.504 232.376L151.397 218.442H154.951V231.71ZM146.115 231.71H151.51V223.101L151.255 223.554L146.115 231.71Z" fill="white"/>
<path d="M198.148 239.06H194.721V222.506L189.666 224.234V221.331L197.709 218.372H198.148V239.06ZM206.233 228.836L207.352 218.442H218.425V221.416H210.212L209.646 226.344C210.599 225.796 211.675 225.522 212.874 225.522C214.838 225.522 216.362 226.15 217.448 227.406C218.543 228.661 219.09 230.351 219.09 232.475C219.09 234.571 218.486 236.242 217.278 237.488C216.07 238.724 214.413 239.343 212.308 239.343C210.42 239.343 208.853 238.809 207.607 237.743C206.37 236.667 205.7 235.25 205.596 233.495H208.923C209.056 234.495 209.414 235.265 210 235.803C210.585 236.331 211.35 236.596 212.294 236.596C213.351 236.596 214.172 236.218 214.757 235.463C215.352 234.708 215.65 233.679 215.65 232.376C215.65 231.12 215.324 230.129 214.672 229.402C214.021 228.666 213.124 228.298 211.982 228.298C211.359 228.298 210.83 228.383 210.396 228.553C209.962 228.713 209.49 229.034 208.98 229.516L206.233 228.836Z" fill="white"/>
<path opacity="0.2" d="M260.878 239.06H257.451V222.506L252.396 224.234V221.331L260.439 218.372H260.878V239.06ZM278.748 218.343V221.189H278.323C276.398 221.218 274.859 221.746 273.707 222.775C272.555 223.804 271.871 225.263 271.654 227.151C272.758 225.99 274.17 225.409 275.888 225.409C277.71 225.409 279.145 226.051 280.192 227.335C281.25 228.619 281.778 230.276 281.778 232.305C281.778 234.401 281.16 236.1 279.923 237.403C278.696 238.696 277.082 239.343 275.081 239.343C273.023 239.343 271.352 238.583 270.068 237.063C268.794 235.543 268.156 233.551 268.156 231.087V229.912C268.156 226.297 269.034 223.465 270.79 221.416C272.555 219.368 275.09 218.343 278.394 218.343H278.748ZM275.052 228.185C274.297 228.185 273.603 228.397 272.971 228.822C272.348 229.247 271.89 229.813 271.597 230.521V231.569C271.597 233.098 271.918 234.316 272.56 235.222C273.202 236.119 274.033 236.567 275.052 236.567C276.072 236.567 276.879 236.185 277.474 235.42C278.068 234.656 278.366 233.65 278.366 232.404C278.366 231.158 278.064 230.143 277.46 229.36C276.855 228.576 276.053 228.185 275.052 228.185Z" fill="white"/>
<path d="M322.88 239.06H319.453V222.506L314.398 224.234V221.331L322.441 218.372H322.88V239.06ZM343.766 220.354L335.525 239.06H331.914L340.141 221.204H329.479V218.442H343.766V220.354Z" fill="white"/>
<path opacity="0.2" d="M385.61 239.06H382.184V222.506L377.129 224.234V221.331L385.171 218.372H385.61V239.06ZM405.76 223.88C405.76 224.89 405.501 225.792 404.982 226.584C404.462 227.368 403.754 227.986 402.858 228.439C403.934 228.94 404.76 229.624 405.336 230.493C405.921 231.361 406.213 232.343 406.213 233.438C406.213 235.25 405.6 236.69 404.373 237.757C403.145 238.814 401.512 239.343 399.473 239.343C397.425 239.343 395.782 238.809 394.546 237.743C393.318 236.676 392.705 235.241 392.705 233.438C392.705 232.333 392.997 231.342 393.583 230.464C394.168 229.586 394.989 228.911 396.046 228.439C395.159 227.986 394.456 227.368 393.937 226.584C393.427 225.792 393.172 224.89 393.172 223.88C393.172 222.124 393.738 220.732 394.871 219.703C396.004 218.674 397.533 218.159 399.459 218.159C401.394 218.159 402.928 218.674 404.061 219.703C405.194 220.732 405.76 222.124 405.76 223.88ZM402.773 233.268C402.773 232.249 402.466 231.427 401.852 230.804C401.248 230.172 400.446 229.855 399.445 229.855C398.444 229.855 397.642 230.167 397.038 230.79C396.443 231.413 396.146 232.239 396.146 233.268C396.146 234.278 396.438 235.085 397.024 235.689C397.618 236.294 398.435 236.596 399.473 236.596C400.512 236.596 401.319 236.303 401.895 235.718C402.48 235.132 402.773 234.316 402.773 233.268ZM402.334 224.007C402.334 223.111 402.074 222.374 401.555 221.798C401.036 221.213 400.337 220.92 399.459 220.92C398.581 220.92 397.887 221.199 397.378 221.756C396.868 222.303 396.613 223.054 396.613 224.007C396.613 224.951 396.868 225.702 397.378 226.259C397.897 226.816 398.595 227.094 399.473 227.094C400.351 227.094 401.045 226.816 401.555 226.259C402.074 225.702 402.334 224.951 402.334 224.007Z" fill="white"/>
<path opacity="0.2" d="M447.611 239.06H444.185V222.506L439.129 224.234V221.331L447.172 218.372H447.611V239.06ZM464.533 230.436C463.381 231.654 462.036 232.263 460.497 232.263C458.685 232.263 457.24 231.63 456.164 230.365C455.088 229.091 454.55 227.42 454.55 225.353C454.55 223.993 454.824 222.761 455.371 221.657C455.919 220.552 456.698 219.693 457.708 219.08C458.718 218.466 459.888 218.159 461.219 218.159C463.296 218.159 464.943 218.933 466.161 220.481C467.379 222.03 467.988 224.102 467.988 226.698V227.661C467.988 231.38 467.148 234.217 465.467 236.171C463.787 238.125 461.281 239.116 457.948 239.145H457.538V236.298H458.033C460.063 236.27 461.621 235.784 462.706 234.84C463.792 233.886 464.401 232.418 464.533 230.436ZM461.219 229.572C461.908 229.572 462.555 229.374 463.159 228.978C463.763 228.581 464.231 228.034 464.561 227.335V225.99C464.561 224.47 464.25 223.247 463.627 222.322C463.004 221.397 462.196 220.935 461.205 220.935C460.214 220.935 459.421 221.345 458.826 222.167C458.241 222.978 457.948 224.007 457.948 225.253C457.948 226.547 458.246 227.59 458.84 228.383C459.435 229.176 460.228 229.572 461.219 229.572Z" fill="white"/>
<path d="M573.779 196H569.525V175.451L563.25 177.596V173.992L573.234 170.318H573.779V196ZM594.785 185.295C593.355 186.807 591.686 187.562 589.775 187.562C587.525 187.562 585.732 186.777 584.396 185.207C583.061 183.625 582.393 181.551 582.393 178.984C582.393 177.297 582.732 175.768 583.412 174.396C584.092 173.025 585.059 171.959 586.312 171.197C587.566 170.436 589.02 170.055 590.672 170.055C593.25 170.055 595.295 171.016 596.807 172.937C598.318 174.859 599.074 177.432 599.074 180.654V181.85C599.074 186.467 598.031 189.988 595.945 192.414C593.859 194.84 590.748 196.07 586.611 196.105H586.102V192.572H586.717C589.236 192.537 591.17 191.934 592.518 190.762C593.865 189.578 594.621 187.756 594.785 185.295ZM590.672 184.223C591.527 184.223 592.33 183.977 593.08 183.484C593.83 182.992 594.41 182.312 594.82 181.445V179.775C594.82 177.889 594.434 176.371 593.66 175.223C592.887 174.074 591.885 173.5 590.654 173.5C589.424 173.5 588.439 174.01 587.701 175.029C586.975 176.037 586.611 177.314 586.611 178.861C586.611 180.467 586.98 181.762 587.719 182.746C588.457 183.73 589.441 184.223 590.672 184.223ZM605.982 191.5C606.779 191.5 607.395 191.728 607.828 192.186C608.262 192.631 608.479 193.193 608.479 193.873C608.479 194.541 608.262 195.098 607.828 195.543C607.395 195.977 606.779 196.193 605.982 196.193C605.221 196.193 604.617 195.977 604.172 195.543C603.727 195.109 603.504 194.553 603.504 193.873C603.504 193.193 603.721 192.631 604.154 192.186C604.588 191.728 605.197 191.5 605.982 191.5ZM605.982 176.576C606.779 176.576 607.395 176.805 607.828 177.262C608.262 177.707 608.479 178.27 608.479 178.949C608.479 179.617 608.262 180.174 607.828 180.619C607.395 181.053 606.779 181.27 605.982 181.27C605.221 181.27 604.617 181.053 604.172 180.619C603.727 180.186 603.504 179.629 603.504 178.949C603.504 178.27 603.721 177.707 604.154 177.262C604.588 176.805 605.197 176.576 605.982 176.576ZM629.379 185.225C629.379 188.904 628.688 191.682 627.305 193.557C625.934 195.42 623.842 196.352 621.029 196.352C618.264 196.352 616.178 195.443 614.771 193.627C613.377 191.799 612.662 189.098 612.627 185.523V181.094C612.627 177.414 613.312 174.654 614.684 172.814C616.066 170.975 618.17 170.055 620.994 170.055C623.795 170.055 625.881 170.951 627.252 172.744C628.635 174.537 629.344 177.221 629.379 180.795V185.225ZM625.107 180.443C625.107 178.041 624.779 176.283 624.123 175.17C623.467 174.045 622.424 173.482 620.994 173.482C619.6 173.482 618.574 174.016 617.918 175.082C617.262 176.137 616.916 177.789 616.881 180.039V185.84C616.881 188.23 617.215 190.012 617.883 191.184C618.551 192.355 619.6 192.941 621.029 192.941C622.4 192.941 623.414 192.402 624.07 191.324C624.727 190.234 625.072 188.535 625.107 186.227V180.443ZM649.84 185.225C649.84 188.904 649.148 191.682 647.766 193.557C646.395 195.42 644.303 196.352 641.49 196.352C638.725 196.352 636.639 195.443 635.232 193.627C633.838 191.799 633.123 189.098 633.088 185.523V181.094C633.088 177.414 633.773 174.654 635.145 172.814C636.527 170.975 638.631 170.055 641.455 170.055C644.256 170.055 646.342 170.951 647.713 172.744C649.096 174.537 649.805 177.221 649.84 180.795V185.225ZM645.568 180.443C645.568 178.041 645.24 176.283 644.584 175.17C643.928 174.045 642.885 173.482 641.455 173.482C640.061 173.482 639.035 174.016 638.379 175.082C637.723 176.137 637.377 177.789 637.342 180.039V185.84C637.342 188.23 637.676 190.012 638.344 191.184C639.012 192.355 640.061 192.941 641.49 192.941C642.861 192.941 643.875 192.402 644.531 191.324C645.188 190.234 645.533 188.535 645.568 186.227V180.443Z" fill="white"/>
<path opacity="0.6" d="M589.89 148H587.763V137.726L584.625 138.798V136.996L589.617 135.159H589.89V148ZM600.393 142.647C599.678 143.403 598.843 143.781 597.888 143.781C596.763 143.781 595.866 143.389 595.198 142.603C594.53 141.812 594.196 140.775 594.196 139.492C594.196 138.648 594.366 137.884 594.706 137.198C595.046 136.513 595.529 135.979 596.156 135.599C596.783 135.218 597.51 135.027 598.336 135.027C599.625 135.027 600.647 135.508 601.403 136.469C602.159 137.43 602.537 138.716 602.537 140.327V140.925C602.537 143.233 602.016 144.994 600.973 146.207C599.93 147.42 598.374 148.035 596.306 148.053H596.051V146.286H596.358C597.618 146.269 598.585 145.967 599.259 145.381C599.933 144.789 600.311 143.878 600.393 142.647ZM598.336 142.111C598.764 142.111 599.165 141.988 599.54 141.742C599.915 141.496 600.205 141.156 600.41 140.723V139.888C600.41 138.944 600.217 138.186 599.83 137.611C599.443 137.037 598.942 136.75 598.327 136.75C597.712 136.75 597.22 137.005 596.851 137.515C596.487 138.019 596.306 138.657 596.306 139.431C596.306 140.233 596.49 140.881 596.859 141.373C597.229 141.865 597.721 142.111 598.336 142.111ZM605.991 145.75C606.39 145.75 606.697 145.864 606.914 146.093C607.131 146.315 607.239 146.597 607.239 146.936C607.239 147.27 607.131 147.549 606.914 147.771C606.697 147.988 606.39 148.097 605.991 148.097C605.61 148.097 605.309 147.988 605.086 147.771C604.863 147.555 604.752 147.276 604.752 146.936C604.752 146.597 604.86 146.315 605.077 146.093C605.294 145.864 605.599 145.75 605.991 145.75ZM605.991 138.288C606.39 138.288 606.697 138.402 606.914 138.631C607.131 138.853 607.239 139.135 607.239 139.475C607.239 139.809 607.131 140.087 606.914 140.31C606.697 140.526 606.39 140.635 605.991 140.635C605.61 140.635 605.309 140.526 605.086 140.31C604.863 140.093 604.752 139.814 604.752 139.475C604.752 139.135 604.86 138.853 605.077 138.631C605.294 138.402 605.599 138.288 605.991 138.288ZM611.818 140.626H613.119C613.775 140.62 614.294 140.45 614.675 140.116C615.062 139.782 615.255 139.299 615.255 138.666C615.255 138.057 615.094 137.585 614.771 137.251C614.455 136.911 613.969 136.741 613.312 136.741C612.738 136.741 612.267 136.908 611.897 137.242C611.528 137.57 611.344 138.001 611.344 138.534H609.208C609.208 137.878 609.381 137.28 609.727 136.741C610.078 136.202 610.564 135.783 611.186 135.484C611.812 135.18 612.513 135.027 613.286 135.027C614.563 135.027 615.565 135.35 616.292 135.994C617.024 136.633 617.391 137.523 617.391 138.666C617.391 139.24 617.206 139.782 616.837 140.292C616.474 140.796 616.002 141.177 615.422 141.435C616.125 141.675 616.658 142.053 617.021 142.568C617.391 143.084 617.575 143.699 617.575 144.414C617.575 145.562 617.18 146.477 616.389 147.156C615.604 147.836 614.569 148.176 613.286 148.176C612.056 148.176 611.048 147.848 610.263 147.191C609.478 146.535 609.085 145.662 609.085 144.572H611.221C611.221 145.135 611.408 145.592 611.783 145.943C612.164 146.295 612.674 146.471 613.312 146.471C613.975 146.471 614.496 146.295 614.877 145.943C615.258 145.592 615.448 145.082 615.448 144.414C615.448 143.74 615.249 143.222 614.851 142.858C614.452 142.495 613.86 142.313 613.075 142.313H611.818V140.626ZM627.92 142.612C627.92 144.452 627.574 145.841 626.883 146.778C626.197 147.71 625.151 148.176 623.745 148.176C622.362 148.176 621.319 147.722 620.616 146.813C619.919 145.899 619.562 144.549 619.544 142.762V140.547C619.544 138.707 619.887 137.327 620.572 136.407C621.264 135.487 622.315 135.027 623.728 135.027C625.128 135.027 626.171 135.476 626.856 136.372C627.548 137.269 627.902 138.61 627.92 140.397V142.612ZM625.784 140.222C625.784 139.02 625.62 138.142 625.292 137.585C624.964 137.022 624.442 136.741 623.728 136.741C623.03 136.741 622.518 137.008 622.189 137.541C621.861 138.068 621.688 138.895 621.671 140.02V142.92C621.671 144.115 621.838 145.006 622.172 145.592C622.506 146.178 623.03 146.471 623.745 146.471C624.431 146.471 624.938 146.201 625.266 145.662C625.594 145.117 625.767 144.268 625.784 143.113V140.222Z" fill="white"/>
<path opacity="0.6" d="M589.89 233H587.763V222.726L584.625 223.798V221.996L589.617 220.159H589.89V233ZM602.396 223.578C602.396 224.205 602.235 224.765 601.913 225.257C601.591 225.743 601.151 226.127 600.595 226.408C601.263 226.719 601.775 227.144 602.133 227.683C602.496 228.222 602.678 228.831 602.678 229.511C602.678 230.636 602.297 231.529 601.535 232.191C600.773 232.848 599.76 233.176 598.494 233.176C597.223 233.176 596.203 232.845 595.436 232.183C594.674 231.521 594.293 230.63 594.293 229.511C594.293 228.825 594.475 228.21 594.838 227.665C595.201 227.12 595.711 226.701 596.367 226.408C595.816 226.127 595.38 225.743 595.058 225.257C594.741 224.765 594.583 224.205 594.583 223.578C594.583 222.488 594.935 221.624 595.638 220.985C596.341 220.347 597.29 220.027 598.485 220.027C599.687 220.027 600.639 220.347 601.342 220.985C602.045 221.624 602.396 222.488 602.396 223.578ZM600.542 229.405C600.542 228.772 600.352 228.263 599.971 227.876C599.596 227.483 599.098 227.287 598.477 227.287C597.855 227.287 597.357 227.48 596.982 227.867C596.613 228.254 596.429 228.767 596.429 229.405C596.429 230.032 596.61 230.533 596.974 230.908C597.343 231.283 597.85 231.471 598.494 231.471C599.139 231.471 599.64 231.289 599.997 230.926C600.36 230.562 600.542 230.056 600.542 229.405ZM600.27 223.657C600.27 223.101 600.108 222.644 599.786 222.286C599.464 221.923 599.03 221.741 598.485 221.741C597.94 221.741 597.51 221.914 597.193 222.26C596.877 222.6 596.719 223.065 596.719 223.657C596.719 224.243 596.877 224.709 597.193 225.055C597.516 225.4 597.949 225.573 598.494 225.573C599.039 225.573 599.47 225.4 599.786 225.055C600.108 224.709 600.27 224.243 600.27 223.657ZM605.991 230.75C606.39 230.75 606.697 230.864 606.914 231.093C607.131 231.315 607.239 231.597 607.239 231.937C607.239 232.271 607.131 232.549 606.914 232.771C606.697 232.988 606.39 233.097 605.991 233.097C605.61 233.097 605.309 232.988 605.086 232.771C604.863 232.555 604.752 232.276 604.752 231.937C604.752 231.597 604.86 231.315 605.077 231.093C605.294 230.864 605.599 230.75 605.991 230.75ZM605.991 223.288C606.39 223.288 606.697 223.402 606.914 223.631C607.131 223.854 607.239 224.135 607.239 224.475C607.239 224.809 607.131 225.087 606.914 225.31C606.697 225.526 606.39 225.635 605.991 225.635C605.61 225.635 605.309 225.526 605.086 225.31C604.863 225.093 604.752 224.814 604.752 224.475C604.752 224.135 604.86 223.854 605.077 223.631C605.294 223.402 605.599 223.288 605.991 223.288ZM611.818 225.626H613.119C613.775 225.62 614.294 225.45 614.675 225.116C615.062 224.782 615.255 224.299 615.255 223.666C615.255 223.057 615.094 222.585 614.771 222.251C614.455 221.911 613.969 221.741 613.312 221.741C612.738 221.741 612.267 221.908 611.897 222.242C611.528 222.57 611.344 223.001 611.344 223.534H609.208C609.208 222.878 609.381 222.28 609.727 221.741C610.078 221.202 610.564 220.783 611.186 220.484C611.812 220.18 612.513 220.027 613.286 220.027C614.563 220.027 615.565 220.35 616.292 220.994C617.024 221.633 617.391 222.523 617.391 223.666C617.391 224.24 617.206 224.782 616.837 225.292C616.474 225.796 616.002 226.177 615.422 226.435C616.125 226.675 616.658 227.053 617.021 227.568C617.391 228.084 617.575 228.699 617.575 229.414C617.575 230.562 617.18 231.477 616.389 232.156C615.604 232.836 614.569 233.176 613.286 233.176C612.056 233.176 611.048 232.848 610.263 232.191C609.478 231.535 609.085 230.662 609.085 229.572H611.221C611.221 230.135 611.408 230.592 611.783 230.943C612.164 231.295 612.674 231.471 613.312 231.471C613.975 231.471 614.496 231.295 614.877 230.943C615.258 230.592 615.448 230.082 615.448 229.414C615.448 228.74 615.249 228.222 614.851 227.858C614.452 227.495 613.86 227.313 613.075 227.313H611.818V225.626ZM627.92 227.612C627.92 229.452 627.574 230.841 626.883 231.778C626.197 232.71 625.151 233.176 623.745 233.176C622.362 233.176 621.319 232.722 620.616 231.813C619.919 230.899 619.562 229.549 619.544 227.762V225.547C619.544 223.707 619.887 222.327 620.572 221.407C621.264 220.487 622.315 220.027 623.728 220.027C625.128 220.027 626.171 220.476 626.856 221.372C627.548 222.269 627.902 223.61 627.92 225.397V227.612ZM625.784 225.222C625.784 224.021 625.62 223.142 625.292 222.585C624.964 222.022 624.442 221.741 623.728 221.741C623.03 221.741 622.518 222.008 622.189 222.541C621.861 223.068 621.688 223.895 621.671 225.02V227.92C621.671 229.115 621.838 230.006 622.172 230.592C622.506 231.178 623.03 231.471 623.745 231.471C624.431 231.471 624.938 231.201 625.266 230.662C625.594 230.117 625.767 229.268 625.784 228.113V225.222Z" fill="white"/>
<path d="M83.0445 174.672V177.518H82.6197C80.6939 177.547 79.1552 178.075 78.0035 179.104C76.8518 180.133 76.1674 181.592 75.9503 183.48C77.0548 182.319 78.4661 181.738 80.1842 181.738C82.0061 181.738 83.441 182.38 84.4889 183.664C85.5462 184.948 86.0748 186.604 86.0748 188.634C86.0748 190.73 85.4565 192.429 84.2198 193.732C82.9926 195.025 81.3784 195.672 79.3771 195.672C77.3191 195.672 75.6482 194.912 74.3644 193.392C73.0899 191.872 72.4527 189.88 72.4527 187.416V186.241C72.4527 182.625 73.3307 179.793 75.0865 177.745C76.8518 175.696 79.3865 174.672 82.6905 174.672H83.0445ZM79.3487 184.513C78.5935 184.513 77.8997 184.726 77.2672 185.151C76.6441 185.575 76.1863 186.142 75.8937 186.85V187.898C75.8937 189.427 76.2146 190.645 76.8565 191.551C77.4985 192.448 78.3292 192.896 79.3487 192.896C80.3683 192.896 81.1754 192.514 81.7701 191.749C82.3648 190.985 82.6622 189.979 82.6622 188.733C82.6622 187.487 82.3601 186.472 81.756 185.689C81.1518 184.905 80.3494 184.513 79.3487 184.513Z" fill="white"/>
<path d="M148.792 176.683L140.55 195.388H136.94L145.167 177.532H134.504V174.771H148.792V176.683Z" fill="white"/>
<path d="M210.056 180.209C210.056 181.219 209.797 182.12 209.277 182.913C208.758 183.697 208.05 184.315 207.153 184.768C208.23 185.269 209.056 185.953 209.631 186.821C210.217 187.69 210.509 188.672 210.509 189.767C210.509 191.579 209.896 193.019 208.669 194.086C207.441 195.143 205.808 195.672 203.769 195.672C201.721 195.672 200.078 195.138 198.841 194.071C197.614 193.005 197.001 191.57 197.001 189.767C197.001 188.662 197.293 187.671 197.879 186.793C198.464 185.915 199.285 185.24 200.342 184.768C199.455 184.315 198.752 183.697 198.233 182.913C197.723 182.12 197.468 181.219 197.468 180.209C197.468 178.453 198.034 177.06 199.167 176.031C200.3 175.002 201.829 174.488 203.755 174.488C205.69 174.488 207.224 175.002 208.357 176.031C209.49 177.06 210.056 178.453 210.056 180.209ZM207.068 189.597C207.068 188.577 206.762 187.756 206.148 187.133C205.544 186.501 204.741 186.184 203.741 186.184C202.74 186.184 201.938 186.496 201.334 187.119C200.739 187.742 200.442 188.568 200.442 189.597C200.442 190.607 200.734 191.414 201.319 192.018C201.914 192.622 202.731 192.924 203.769 192.924C204.808 192.924 205.615 192.632 206.191 192.047C206.776 191.461 207.068 190.645 207.068 189.597ZM206.629 180.336C206.629 179.439 206.37 178.703 205.851 178.127C205.331 177.542 204.633 177.249 203.755 177.249C202.877 177.249 202.183 177.528 201.673 178.085C201.164 178.632 200.909 179.383 200.909 180.336C200.909 181.28 201.164 182.031 201.673 182.588C202.193 183.145 202.891 183.423 203.769 183.423C204.647 183.423 205.341 183.145 205.851 182.588C206.37 182.031 206.629 181.28 206.629 180.336Z" fill="white"/>
<path opacity="0.2" d="M269.558 186.765C268.407 187.983 267.061 188.591 265.523 188.591C263.71 188.591 262.266 187.959 261.19 186.694C260.113 185.42 259.575 183.749 259.575 181.681C259.575 180.322 259.849 179.09 260.397 177.986C260.944 176.881 261.723 176.022 262.733 175.408C263.743 174.795 264.914 174.488 266.245 174.488C268.322 174.488 269.969 175.262 271.187 176.81C272.404 178.358 273.013 180.431 273.013 183.027V183.989C273.013 187.709 272.173 190.546 270.493 192.5C268.812 194.454 266.306 195.445 262.974 195.473H262.563V192.627H263.059C265.088 192.599 266.646 192.113 267.732 191.169C268.817 190.215 269.426 188.747 269.558 186.765ZM266.245 185.901C266.934 185.901 267.581 185.703 268.185 185.306C268.789 184.91 269.256 184.362 269.587 183.664V182.319C269.587 180.799 269.275 179.576 268.652 178.651C268.029 177.726 267.222 177.263 266.231 177.263C265.239 177.263 264.446 177.674 263.852 178.495C263.266 179.307 262.974 180.336 262.974 181.582C262.974 182.876 263.271 183.919 263.866 184.712C264.461 185.505 265.254 185.901 266.245 185.901Z" fill="white"/>
<path d="M322.88 195.388H319.453V178.835L314.398 180.563V177.66L322.441 174.7H322.88V195.388ZM343.483 186.708C343.483 189.672 342.926 191.91 341.812 193.42C340.708 194.921 339.023 195.672 336.757 195.672C334.529 195.672 332.849 194.94 331.716 193.477C330.593 192.004 330.017 189.828 329.988 186.949V183.381C329.988 180.416 330.541 178.193 331.645 176.711C332.759 175.229 334.454 174.488 336.729 174.488C338.985 174.488 340.665 175.21 341.77 176.654C342.884 178.099 343.455 180.261 343.483 183.14V186.708ZM340.042 182.857C340.042 180.921 339.778 179.505 339.249 178.609C338.72 177.702 337.88 177.249 336.729 177.249C335.605 177.249 334.779 177.679 334.251 178.538C333.722 179.387 333.443 180.718 333.415 182.531V187.204C333.415 189.13 333.684 190.564 334.222 191.508C334.76 192.452 335.605 192.924 336.757 192.924C337.861 192.924 338.678 192.49 339.207 191.622C339.735 190.744 340.014 189.375 340.042 187.515V182.857Z" fill="white"/>
<path opacity="0.2" d="M385.61 195.388H382.184V178.835L377.129 180.563V177.66L385.171 174.7H385.61V195.388ZM402.093 195.388H398.666V178.835L393.611 180.563V177.66L401.654 174.7H402.093V195.388Z" fill="white"/>
<path opacity="0.2" d="M447.611 195.388H444.185V178.835L439.129 180.563V177.66L447.172 174.7H447.611V195.388ZM468.639 195.388H454.776V193.024L461.644 185.533C462.635 184.428 463.339 183.508 463.754 182.772C464.179 182.026 464.391 181.28 464.391 180.534C464.391 179.553 464.113 178.76 463.556 178.155C463.008 177.551 462.267 177.249 461.333 177.249C460.219 177.249 459.355 177.589 458.741 178.269C458.128 178.948 457.821 179.878 457.821 181.058H454.38C454.38 179.803 454.663 178.675 455.23 177.674C455.805 176.664 456.622 175.88 457.679 175.323C458.746 174.766 459.973 174.488 461.361 174.488C463.362 174.488 464.939 174.993 466.09 176.003C467.252 177.004 467.832 178.391 467.832 180.166C467.832 181.195 467.539 182.276 466.954 183.409C466.378 184.532 465.43 185.811 464.108 187.246L459.067 192.641H468.639V195.388Z" fill="white"/>
<path d="M81.6568 151.717H78.2301V135.164L73.1749 136.891V133.989L81.2179 131.029H81.6568V151.717Z" fill="white"/>
<path d="M148.933 151.717H135.07V149.352L141.938 141.862C142.929 140.757 143.633 139.837 144.048 139.1C144.473 138.355 144.685 137.609 144.685 136.863C144.685 135.881 144.407 135.088 143.85 134.484C143.302 133.88 142.561 133.578 141.627 133.578C140.513 133.578 139.649 133.918 139.035 134.597C138.422 135.277 138.115 136.207 138.115 137.387H134.674C134.674 136.131 134.957 135.003 135.524 134.003C136.099 132.993 136.916 132.209 137.973 131.652C139.04 131.095 140.267 130.817 141.655 130.817C143.656 130.817 145.233 131.322 146.384 132.332C147.546 133.332 148.126 134.72 148.126 136.495C148.126 137.524 147.833 138.605 147.248 139.738C146.672 140.861 145.724 142.14 144.402 143.575L139.361 148.97H148.933V151.717Z" fill="white"/>
<path opacity="0.2" d="M201.05 139.837H203.146C204.203 139.827 205.039 139.553 205.652 139.015C206.275 138.477 206.587 137.699 206.587 136.679C206.587 135.697 206.327 134.937 205.808 134.399C205.298 133.852 204.515 133.578 203.458 133.578C202.532 133.578 201.773 133.847 201.178 134.385C200.583 134.914 200.286 135.608 200.286 136.467H196.845C196.845 135.409 197.123 134.446 197.68 133.578C198.247 132.709 199.03 132.034 200.031 131.553C201.041 131.062 202.169 130.817 203.415 130.817C205.473 130.817 207.087 131.336 208.258 132.374C209.438 133.403 210.028 134.838 210.028 136.679C210.028 137.604 209.731 138.477 209.136 139.299C208.551 140.11 207.791 140.724 206.856 141.139C207.989 141.526 208.848 142.135 209.433 142.966C210.028 143.797 210.325 144.788 210.325 145.94C210.325 147.79 209.688 149.263 208.414 150.358C207.149 151.453 205.483 152 203.415 152C201.433 152 199.809 151.472 198.544 150.414C197.279 149.357 196.647 147.95 196.647 146.195H200.088C200.088 147.101 200.39 147.837 200.994 148.404C201.607 148.97 202.429 149.253 203.458 149.253C204.524 149.253 205.365 148.97 205.978 148.404C206.592 147.837 206.899 147.016 206.899 145.94C206.899 144.854 206.578 144.019 205.936 143.433C205.294 142.848 204.34 142.555 203.075 142.555H201.05V139.837Z" fill="white"/>
<path d="M271.442 144.368H274.004V147.129H271.442V151.717H268.001V147.129H259.094L258.995 145.033L267.887 131.1H271.442V144.368ZM262.606 144.368H268.001V135.759L267.746 136.212L262.606 144.368Z" fill="white"/>
<path d="M322.724 141.493L323.843 131.1H334.916V134.074H326.703L326.137 139.001C327.09 138.454 328.166 138.18 329.365 138.18C331.329 138.18 332.853 138.808 333.939 140.063C335.034 141.319 335.582 143.009 335.582 145.133C335.582 147.228 334.977 148.899 333.769 150.145C332.561 151.382 330.904 152 328.799 152C326.911 152 325.344 151.467 324.098 150.4C322.861 149.324 322.191 147.908 322.087 146.152H325.415C325.547 147.153 325.906 147.922 326.491 148.46C327.076 148.989 327.841 149.253 328.785 149.253C329.842 149.253 330.663 148.876 331.249 148.12C331.843 147.365 332.141 146.336 332.141 145.033C332.141 143.778 331.815 142.787 331.164 142.06C330.512 141.324 329.615 140.955 328.473 140.955C327.85 140.955 327.322 141.04 326.887 141.21C326.453 141.371 325.981 141.692 325.471 142.173L322.724 141.493Z" fill="white"/>
<path opacity="0.2" d="M395.239 131.001V133.847H394.815C392.889 133.875 391.35 134.404 390.198 135.433C389.047 136.462 388.362 137.92 388.145 139.808C389.25 138.647 390.661 138.067 392.379 138.067C394.201 138.067 395.636 138.709 396.684 139.992C397.741 141.276 398.27 142.933 398.27 144.963C398.27 147.058 397.651 148.758 396.415 150.06C395.187 151.354 393.573 152 391.572 152C389.514 152 387.843 151.24 386.559 149.72C385.285 148.201 384.648 146.209 384.648 143.745V142.57C384.648 138.954 385.525 136.122 387.281 134.074C389.047 132.025 391.581 131.001 394.885 131.001H395.239ZM391.544 140.842C390.788 140.842 390.095 141.054 389.462 141.479C388.839 141.904 388.381 142.47 388.088 143.178V144.226C388.088 145.756 388.409 146.973 389.051 147.88C389.693 148.776 390.524 149.225 391.544 149.225C392.563 149.225 393.37 148.843 393.965 148.078C394.56 147.313 394.857 146.308 394.857 145.062C394.857 143.816 394.555 142.801 393.951 142.017C393.347 141.234 392.544 140.842 391.544 140.842Z" fill="white"/>
<path opacity="0.2" d="M460.256 133.012L452.015 151.717H448.404L456.631 133.861H445.969V131.1H460.256V133.012Z" fill="white"/>
<path opacity="0.601619" d="M86.2862 108.397H83.087V92.5026H74.9493V108.397H71.7501V89.9128H86.2862V108.397Z" fill="white"/>
<path opacity="0.601619" d="M135.446 108.397V89.9128H141.781C143.871 89.9128 145.463 90.3317 146.554 91.1696C147.646 92.0075 148.192 93.2559 148.192 94.9147C148.192 95.7611 147.963 96.5228 147.506 97.1999C147.049 97.877 146.381 98.4017 145.501 98.7741C146.499 99.0449 147.269 99.557 147.811 100.31C148.361 101.055 148.636 101.952 148.636 103.002C148.636 104.737 148.078 106.07 146.961 107.001C145.852 107.932 144.261 108.397 142.187 108.397H135.446ZM138.658 100.056V105.833H142.225C143.232 105.833 144.019 105.583 144.587 105.084C145.154 104.584 145.437 103.89 145.437 103.002C145.437 101.08 144.455 100.099 142.492 100.056H138.658ZM138.658 97.695H141.806C142.805 97.695 143.584 97.4707 144.142 97.0222C144.709 96.5651 144.993 95.9219 144.993 95.0925C144.993 94.1784 144.73 93.5182 144.206 93.112C143.689 92.7057 142.881 92.5026 141.781 92.5026H138.658V97.695Z" fill="white"/>
<path opacity="0.601619" d="M211.259 102.38C211.073 104.352 210.345 105.892 209.076 107.001C207.806 108.101 206.118 108.651 204.01 108.651C202.538 108.651 201.239 108.304 200.113 107.61C198.996 106.908 198.132 105.913 197.523 104.627C196.914 103.34 196.596 101.846 196.571 100.145V98.4186C196.571 96.6752 196.88 95.139 197.498 93.8102C198.115 92.4815 199 91.4574 200.151 90.738C201.31 90.0186 202.648 89.6589 204.163 89.6589C206.202 89.6589 207.844 90.2132 209.088 91.322C210.333 92.4307 211.056 93.9964 211.259 96.0192H208.06C207.908 94.6905 207.518 93.7341 206.892 93.1501C206.274 92.5576 205.365 92.2614 204.163 92.2614C202.766 92.2614 201.691 92.7735 200.938 93.7975C200.193 94.8132 199.812 96.307 199.796 98.279V99.9167C199.796 101.914 200.151 103.438 200.862 104.487C201.581 105.536 202.631 106.061 204.01 106.061C205.271 106.061 206.219 105.778 206.854 105.211C207.489 104.644 207.891 103.7 208.06 102.38H211.259Z" fill="white"/>
<path opacity="0.601619" d="M273.52 89.9128V108.397H270.321V101.123C268.95 101.47 267.519 101.643 266.03 101.643C263.821 101.643 262.149 101.157 261.015 100.183C259.881 99.21 259.31 97.7416 259.301 95.778V89.9128H262.501V95.8034C262.509 96.9798 262.78 97.8177 263.313 98.3171C263.846 98.8164 264.752 99.0661 266.03 99.0661C267.503 99.0661 268.933 98.8884 270.321 98.5329V89.9128H273.52Z" fill="white"/>
<path opacity="0.601619" d="M335.751 108.397H332.551V92.5026H324.414V108.397H321.214V89.9128H335.751V108.397Z" fill="white"/>
<path opacity="0.601619" d="M385.088 102.38C384.901 104.352 384.173 105.892 382.904 107.001C381.634 108.101 379.946 108.651 377.838 108.651C376.366 108.651 375.067 108.304 373.941 107.61C372.824 106.908 371.961 105.913 371.351 104.627C370.742 103.34 370.424 101.846 370.399 100.145V98.4186C370.399 96.6752 370.708 95.139 371.326 93.8102C371.944 92.4815 372.828 91.4574 373.979 90.738C375.139 90.0186 376.476 89.6589 377.991 89.6589C380.031 89.6589 381.672 90.2132 382.917 91.322C384.161 92.4307 384.884 93.9964 385.088 96.0192H381.888C381.736 94.6905 381.347 93.7341 380.72 93.1501C380.102 92.5576 379.193 92.2614 377.991 92.2614C376.594 92.2614 375.519 92.7735 374.766 93.7975C374.021 94.8132 373.641 96.307 373.624 98.279V99.9167C373.624 101.914 373.979 103.438 374.69 104.487C375.409 105.536 376.459 106.061 377.838 106.061C379.1 106.061 380.047 105.778 380.682 105.211C381.317 104.644 381.719 103.7 381.888 102.38H385.088ZM392.476 103.979L395.269 94.6608H398.557L393.098 110.479C392.26 112.79 390.838 113.945 388.833 113.945C388.384 113.945 387.889 113.869 387.347 113.716V111.33L387.931 111.368C388.71 111.368 389.294 111.224 389.683 110.936C390.081 110.657 390.394 110.183 390.623 109.514L391.067 108.334L386.243 94.6608H389.569L392.476 103.979ZM406.809 95.4225C408.536 95.4225 409.92 96.0023 410.961 97.1618C412.002 98.3128 412.522 99.8786 412.522 101.859V102.011C412.522 103.992 411.955 105.596 410.821 106.823C409.695 108.05 408.163 108.664 406.225 108.664C404.338 108.664 402.814 108.037 401.655 106.785C400.495 105.532 399.916 103.823 399.916 101.656V100.767C399.916 97.805 400.44 95.4606 401.49 93.7341C402.539 92.0075 404.105 90.9284 406.187 90.4968C407.355 90.2598 408.108 90.0101 408.447 89.7477C408.794 89.4769 408.967 89.113 408.967 88.6559H411.456C411.456 89.5108 411.316 90.2048 411.037 90.738C410.757 91.2712 410.33 91.7071 409.754 92.0456C409.179 92.3757 408.189 92.6888 406.784 92.985C405.497 93.2559 404.516 93.7383 403.838 94.4323C403.17 95.1263 402.721 96.0869 402.493 97.3141C403.72 96.0531 405.159 95.4225 406.809 95.4225ZM406.2 97.8981C405.201 97.8981 404.418 98.2367 403.851 98.9138C403.284 99.5824 403.001 100.615 403.001 102.011C403.001 103.332 403.28 104.36 403.838 105.096C404.397 105.833 405.193 106.201 406.225 106.201C407.249 106.201 408.041 105.833 408.599 105.096C409.166 104.352 409.45 103.234 409.45 101.745C409.45 100.56 409.166 99.6247 408.599 98.9391C408.041 98.2451 407.241 97.8981 406.2 97.8981Z" fill="white"/>
<path opacity="0.601619" d="M432.908 108.397V89.9128H439.243C441.333 89.9128 442.924 90.3317 444.016 91.1696C445.108 92.0075 445.654 93.2559 445.654 94.9147C445.654 95.7611 445.425 96.5228 444.968 97.1999C444.511 97.877 443.843 98.4017 442.963 98.7741C443.961 99.0449 444.731 99.557 445.273 100.31C445.823 101.055 446.098 101.952 446.098 103.002C446.098 104.737 445.54 106.07 444.422 107.001C443.314 107.932 441.723 108.397 439.649 108.397H432.908ZM436.12 100.056V105.833H439.687C440.694 105.833 441.481 105.583 442.048 105.084C442.615 104.584 442.899 103.89 442.899 103.002C442.899 101.08 441.917 100.099 439.954 100.056H436.12ZM436.12 97.695H439.268C440.267 97.695 441.046 97.4707 441.604 97.0222C442.171 96.5651 442.455 95.9219 442.455 95.0925C442.455 94.1784 442.192 93.5182 441.668 93.112C441.151 92.7057 440.343 92.5026 439.243 92.5026H436.12V97.695ZM454.655 106.188C455.425 106.188 456.064 105.964 456.572 105.515C457.08 105.067 457.351 104.512 457.384 103.852H460.292C460.258 104.707 459.991 105.507 459.492 106.252C458.992 106.988 458.315 107.572 457.461 108.004C456.606 108.435 455.683 108.651 454.693 108.651C452.772 108.651 451.248 108.029 450.123 106.785C448.997 105.541 448.434 103.823 448.434 101.631V101.313C448.434 99.2227 448.993 97.5511 450.11 96.2985C451.227 95.0375 452.751 94.4069 454.68 94.4069C456.314 94.4069 457.643 94.8851 458.667 95.8415C459.699 96.7894 460.241 98.0378 460.292 99.5866H457.384C457.351 98.7995 457.08 98.152 456.572 97.6442C456.073 97.1364 455.434 96.8825 454.655 96.8825C453.656 96.8825 452.886 97.2464 452.344 97.9743C451.803 98.6937 451.528 99.7897 451.519 101.262V101.758C451.519 103.247 451.786 104.36 452.319 105.096C452.861 105.824 453.639 106.188 454.655 106.188ZM467.503 102.964H465.941V108.397H462.856V94.6608H465.941V100.145H467.299L471.095 94.6608H474.904L469.94 101.237L475.323 108.397H471.311L467.503 102.964Z" fill="white"/>
<path d="M183.834 25.4062L191.217 45.0234L198.582 25.4062H204.33V51H199.9V42.5625L200.34 31.2773L192.781 51H189.6L182.059 31.2949L182.498 42.5625V51H178.068V25.4062H183.834ZM220.555 51C220.367 50.6367 220.203 50.0449 220.062 49.2246C218.703 50.6426 217.039 51.3516 215.07 51.3516C213.16 51.3516 211.602 50.8066 210.395 49.7168C209.188 48.627 208.584 47.2793 208.584 45.6738C208.584 43.6465 209.334 42.0938 210.834 41.0156C212.346 39.9258 214.502 39.3809 217.303 39.3809H219.922V38.1328C219.922 37.1484 219.646 36.3633 219.096 35.7773C218.545 35.1797 217.707 34.8809 216.582 34.8809C215.609 34.8809 214.812 35.127 214.191 35.6191C213.57 36.0996 213.26 36.7148 213.26 37.4648H208.988C208.988 36.4219 209.334 35.4492 210.025 34.5469C210.717 33.6328 211.654 32.918 212.838 32.4023C214.033 31.8867 215.363 31.6289 216.828 31.6289C219.055 31.6289 220.83 32.1914 222.154 33.3164C223.479 34.4297 224.158 36 224.193 38.0273V46.6055C224.193 48.3164 224.434 49.6816 224.914 50.7012V51H220.555ZM215.861 47.9238C216.705 47.9238 217.496 47.7188 218.234 47.3086C218.984 46.8984 219.547 46.3477 219.922 45.6562V42.0703H217.619C216.037 42.0703 214.848 42.3457 214.051 42.8965C213.254 43.4473 212.855 44.2266 212.855 45.2344C212.855 46.0547 213.125 46.7109 213.664 47.2031C214.215 47.6836 214.947 47.9238 215.861 47.9238ZM245.322 41.6836C245.322 44.625 244.654 46.9746 243.318 48.7324C241.982 50.4785 240.189 51.3516 237.939 51.3516C235.854 51.3516 234.184 50.666 232.93 49.2949V58.3125H228.658V31.9805H232.596L232.771 33.9141C234.025 32.3906 235.73 31.6289 237.887 31.6289C240.207 31.6289 242.023 32.4961 243.336 34.2305C244.66 35.9531 245.322 38.3496 245.322 41.4199V41.6836ZM241.068 41.3145C241.068 39.416 240.688 37.9102 239.926 36.7969C239.176 35.6836 238.098 35.127 236.691 35.127C234.945 35.127 233.691 35.8477 232.93 37.2891V45.7266C233.703 47.2031 234.969 47.9414 236.727 47.9414C238.086 47.9414 239.146 47.3965 239.908 46.3066C240.682 45.2051 241.068 43.541 241.068 41.3145ZM263.182 35.373H257.012V51H252.74V35.373H246.641V31.9805H263.182V35.373ZM291.939 51H274.73V48.0645L283.256 38.7656C284.486 37.3945 285.359 36.252 285.875 35.3379C286.402 34.4121 286.666 33.4863 286.666 32.5605C286.666 31.3418 286.32 30.3574 285.629 29.6074C284.949 28.8574 284.029 28.4824 282.869 28.4824C281.486 28.4824 280.414 28.9043 279.652 29.748C278.891 30.5918 278.51 31.7461 278.51 33.2109H274.238C274.238 31.6523 274.59 30.252 275.293 29.0098C276.008 27.7559 277.021 26.7832 278.334 26.0918C279.658 25.4004 281.182 25.0547 282.904 25.0547C285.389 25.0547 287.346 25.6816 288.775 26.9355C290.217 28.1777 290.938 29.9004 290.938 32.1035C290.938 33.3809 290.574 34.7227 289.848 36.1289C289.133 37.5234 287.955 39.1113 286.314 40.8926L280.057 47.5898H291.939V51ZM311.873 40.2246C311.873 43.9043 311.182 46.6816 309.799 48.5566C308.428 50.4199 306.336 51.3516 303.523 51.3516C300.758 51.3516 298.672 50.4434 297.266 48.627C295.871 46.7988 295.156 44.0977 295.121 40.5234V36.0938C295.121 32.4141 295.807 29.6543 297.178 27.8145C298.561 25.9746 300.664 25.0547 303.488 25.0547C306.289 25.0547 308.375 25.9512 309.746 27.7441C311.129 29.5371 311.838 32.2207 311.873 35.7949V40.2246ZM307.602 35.4434C307.602 33.041 307.273 31.2832 306.617 30.1699C305.961 29.0449 304.918 28.4824 303.488 28.4824C302.094 28.4824 301.068 29.0156 300.412 30.082C299.756 31.1367 299.41 32.7891 299.375 35.0391V40.8398C299.375 43.2305 299.709 45.0117 300.377 46.1836C301.045 47.3555 302.094 47.9414 303.523 47.9414C304.895 47.9414 305.908 47.4023 306.564 46.3242C307.221 45.2344 307.566 43.5352 307.602 41.2266V35.4434ZM332.861 51H315.652V48.0645L324.178 38.7656C325.408 37.3945 326.281 36.252 326.797 35.3379C327.324 34.4121 327.588 33.4863 327.588 32.5605C327.588 31.3418 327.242 30.3574 326.551 29.6074C325.871 28.8574 324.951 28.4824 323.791 28.4824C322.408 28.4824 321.336 28.9043 320.574 29.748C319.812 30.5918 319.432 31.7461 319.432 33.2109H315.16C315.16 31.6523 315.512 30.252 316.215 29.0098C316.93 27.7559 317.943 26.7832 319.256 26.0918C320.58 25.4004 322.104 25.0547 323.826 25.0547C326.311 25.0547 328.268 25.6816 329.697 26.9355C331.139 28.1777 331.859 29.9004 331.859 32.1035C331.859 33.3809 331.496 34.7227 330.77 36.1289C330.055 37.5234 328.877 39.1113 327.236 40.8926L320.979 47.5898H332.861V51ZM352.795 40.2246C352.795 43.9043 352.104 46.6816 350.721 48.5566C349.35 50.4199 347.258 51.3516 344.445 51.3516C341.68 51.3516 339.594 50.4434 338.188 48.627C336.793 46.7988 336.078 44.0977 336.043 40.5234V36.0938C336.043 32.4141 336.729 29.6543 338.1 27.8145C339.482 25.9746 341.586 25.0547 344.41 25.0547C347.211 25.0547 349.297 25.9512 350.668 27.7441C352.051 29.5371 352.76 32.2207 352.795 35.7949V40.2246ZM348.523 35.4434C348.523 33.041 348.195 31.2832 347.539 30.1699C346.883 29.0449 345.84 28.4824 344.41 28.4824C343.016 28.4824 341.99 29.0156 341.334 30.082C340.678 31.1367 340.332 32.7891 340.297 35.0391V40.8398C340.297 43.2305 340.631 45.0117 341.299 46.1836C341.967 47.3555 343.016 47.9414 344.445 47.9414C345.816 47.9414 346.83 47.4023 347.486 46.3242C348.143 45.2344 348.488 43.5352 348.523 41.2266V35.4434Z" fill="white"/>
<path d="M553.916 51V25.4062H562.688C565.582 25.4062 567.785 25.9863 569.297 27.1465C570.809 28.3066 571.564 30.0352 571.564 32.332C571.564 33.5039 571.248 34.5586 570.615 35.4961C569.982 36.4336 569.057 37.1602 567.838 37.6758C569.221 38.0508 570.287 38.7598 571.037 39.8027C571.799 40.834 572.18 42.0762 572.18 43.5293C572.18 45.9316 571.406 47.7773 569.859 49.0664C568.324 50.3555 566.121 51 563.25 51H553.916ZM558.363 39.4512V47.4492H563.303C564.697 47.4492 565.787 47.1035 566.572 46.4121C567.357 45.7207 567.75 44.7598 567.75 43.5293C567.75 40.8691 566.391 39.5098 563.672 39.4512H558.363ZM558.363 36.1816H562.723C564.105 36.1816 565.184 35.8711 565.957 35.25C566.742 34.6172 567.135 33.7266 567.135 32.5781C567.135 31.3125 566.771 30.3984 566.045 29.8359C565.33 29.2734 564.211 28.9922 562.688 28.9922H558.363V36.1816ZM592.869 41.6836C592.869 44.625 592.201 46.9746 590.865 48.7324C589.529 50.4785 587.736 51.3516 585.486 51.3516C583.4 51.3516 581.73 50.666 580.477 49.2949V58.3125H576.205V31.9805H580.143L580.318 33.9141C581.572 32.3906 583.277 31.6289 585.434 31.6289C587.754 31.6289 589.57 32.4961 590.883 34.2305C592.207 35.9531 592.869 38.3496 592.869 41.4199V41.6836ZM588.615 41.3145C588.615 39.416 588.234 37.9102 587.473 36.7969C586.723 35.6836 585.645 35.127 584.238 35.127C582.492 35.127 581.238 35.8477 580.477 37.2891V45.7266C581.25 47.2031 582.516 47.9414 584.273 47.9414C585.633 47.9414 586.693 47.3965 587.455 46.3066C588.229 45.2051 588.615 43.541 588.615 41.3145ZM604.875 51.3516C602.168 51.3516 599.971 50.502 598.283 48.8027C596.607 47.0918 595.77 44.8184 595.77 41.9824V41.4551C595.77 39.5566 596.133 37.8633 596.859 36.375C597.598 34.875 598.629 33.709 599.953 32.877C601.277 32.0449 602.754 31.6289 604.383 31.6289C606.973 31.6289 608.971 32.4551 610.377 34.1074C611.795 35.7598 612.504 38.0977 612.504 41.1211V42.8438H600.076C600.205 44.4141 600.727 45.6562 601.641 46.5703C602.566 47.4844 603.727 47.9414 605.121 47.9414C607.078 47.9414 608.672 47.1504 609.902 45.5684L612.205 47.7656C611.443 48.9023 610.424 49.7871 609.146 50.4199C607.881 51.041 606.457 51.3516 604.875 51.3516ZM604.365 35.0566C603.193 35.0566 602.244 35.4668 601.518 36.2871C600.803 37.1074 600.346 38.25 600.146 39.7148H608.285V39.3984C608.191 37.9688 607.811 36.8906 607.143 36.1641C606.475 35.4258 605.549 35.0566 604.365 35.0566ZM627.129 45.7441L632.754 31.9805H638.098V51H633.826V38.4141L628.588 51H625.688L620.432 38.3438V51H616.16V31.9805H621.539L627.129 45.7441ZM658.137 31.9805V51H653.883V44.0215H649.893L645.832 51H641.402L645.885 43.3184C644.713 42.8262 643.811 42.123 643.178 41.209C642.557 40.2949 642.246 39.2461 642.246 38.0625C642.246 36.293 642.926 34.8457 644.285 33.7207C645.656 32.584 647.502 32.0039 649.822 31.9805H658.137ZM646.518 38.168C646.518 38.9648 646.811 39.6152 647.396 40.1191C647.994 40.6113 648.756 40.8574 649.682 40.8574H653.883V35.373H649.945C648.902 35.373 648.07 35.6367 647.449 36.1641C646.828 36.6914 646.518 37.3594 646.518 38.168Z" fill="white"/>
<path d="M471.469 29.2262L484.598 35.273L471.469 41.3198" stroke="white" stroke-width="2" stroke-linecap="round" stroke-linejoin="round"/>
<path d="M600 114.13L606.047 101L612.094 114.13" stroke="white" stroke-width="2" stroke-linecap="round" stroke-linejoin="round"/>
<path d="M612.094 254L606.047 267.13L600 254" stroke="white" stroke-width="2" stroke-linecap="round" stroke-linejoin="round"/>
<path d="M60.8015 29.2262L47.6718 35.273L60.8015 41.3198" stroke="white" stroke-width="2" stroke-linecap="round" stroke-linejoin="round"/>
<path opacity="0.13" fill-rule="evenodd" clip-rule="evenodd" d="M47.6721 71.8897H484.599V72.5616H47.6721V71.8897Z" fill="white"/>
<path opacity="0.17" fill-rule="evenodd" clip-rule="evenodd" d="M47.6719 71.2179H484.598V71.8898H47.6719V71.2179Z" fill="black"/>
</svg>
